<?xml version="1.0" standalone="no"?>
<!DOCTYPE svg PUBLIC "-//W3C//DTD SVG 20010904//EN"
 "http://www.w3.org/TR/2001/REC-SVG-20010904/DTD/svg10.dtd">
<svg version="1.0" xmlns="http://www.w3.org/2000/svg"
 width="564.000000pt" height="564.000000pt" viewBox="0 0 564.000000 564.000000"
 preserveAspectRatio="xMidYMid meet">
<metadata>
Created by potrace 1.16, written by Peter Selinger 2001-2019
</metadata>
<g transform="translate(0.000000,564.000000) scale(0.100000,-0.100000)"
fill="#000000" stroke="none">
<path d="M608 5373 c2 -148 8 -272 13 -277 5 -6 25 -4 50 3 23 7 75 15 116 18
l73 6 0 51 c0 28 -5 94 -10 146 -5 52 -10 146 -11 208 -2 90 -5 112 -17 112
-12 0 -13 -24 -7 -162 4 -90 11 -185 16 -212 15 -79 12 -116 -8 -117 -40 -1
-149 -17 -165 -24 -17 -7 -18 5 -18 171 0 225 -9 344 -25 344 -9 0 -11 -63 -7
-267z"/>
<path d="M1110 5623 c0 -10 7 -63 15 -118 8 -55 15 -168 15 -252 l0 -152 -37
-6 c-21 -3 -73 -12 -116 -21 -72 -14 -81 -14 -96 0 -25 23 -37 20 -62 -13 -21
-29 -22 -29 -61 -15 -56 20 -61 19 -102 -22 l-37 -37 -81 7 -81 7 6 -48 c3
-26 7 -57 9 -68 3 -18 -3 -20 -65 -23 -65 -3 -67 -2 -77 24 -6 15 -13 70 -17
123 -3 53 -10 102 -16 108 -5 7 -28 18 -50 24 -57 15 -124 65 -136 102 -12 34
-14 99 -5 147 6 27 15 36 53 53 25 11 49 25 53 31 29 44 -30 117 -107 134 -69
15 -115 -1 -115 -40 0 -18 2 -18 22 -4 12 9 37 16 56 16 40 0 108 -33 122 -60
11 -20 7 -24 -65 -61 -45 -22 -56 -53 -53 -141 2 -59 8 -83 24 -105 31 -42
100 -91 144 -103 l40 -11 0 -75 c0 -89 15 -156 40 -179 15 -13 35 -16 98 -13
l80 3 27 -55 c44 -91 106 -189 133 -210 38 -31 94 -26 135 10 66 57 144 201
171 313 6 25 4 27 -28 27 -18 0 -76 -9 -127 -19 -52 -11 -139 -22 -195 -26
l-100 -7 -12 40 c-7 21 -12 44 -12 49 0 5 36 9 81 8 l81 0 30 37 c29 37 30 37
58 23 44 -23 76 -19 98 12 20 27 21 27 41 9 19 -18 24 -18 83 -3 35 8 88 18
118 22 30 4 60 11 66 16 33 27 1 559 -33 559 -7 0 -13 -8 -13 -17z m-175 -760
c-25 -104 -113 -247 -171 -279 -63 -35 -94 -5 -187 182 l-36 71 97 7 c53 4
133 15 177 25 44 10 91 19 104 20 20 1 22 -2 16 -26z"/>
<path d="M1450 5598 c1 -24 7 -68 14 -98 37 -148 122 -258 231 -299 60 -23
346 -47 429 -37 78 10 146 46 192 102 62 74 79 115 124 302 l17 72 -22 0 c-18
0 -23 -9 -34 -65 -48 -240 -125 -347 -269 -375 -65 -12 -363 6 -427 27 -119
39 -225 214 -225 373 0 29 -4 40 -15 40 -11 0 -15 -11 -15 -42z"/>
<path d="M1691 5593 c82 -121 148 -180 222 -197 54 -13 90 49 103 182 6 51 4
62 -8 62 -11 0 -17 -16 -21 -57 -14 -122 -38 -170 -81 -159 -37 9 -119 87
-168 159 -25 37 -46 57 -59 57 -18 0 -17 -4 12 -47z"/>
<path d="M2497 5603 c-3 -21 -13 -110 -22 -198 -8 -88 -20 -201 -25 -252 -16
-144 -13 -393 6 -473 20 -91 51 -136 88 -132 32 4 55 17 143 83 64 49 111 67
137 52 8 -4 29 -27 46 -51 49 -68 69 -72 135 -28 31 20 67 41 80 46 22 8 25 6
35 -28 5 -20 10 -58 10 -83 l0 -47 -182 -4 c-101 -3 -191 -8 -202 -13 -16 -7
-18 -16 -13 -72 l5 -63 -33 0 c-38 0 -95 -48 -95 -81 0 -27 9 -24 51 17 31 30
42 35 66 30 17 -4 40 -21 52 -37 27 -36 136 -109 163 -109 15 0 9 -12 -31 -57
-139 -162 -162 -191 -198 -252 l-38 -65 -6 69 c-4 39 -7 102 -8 142 l-1 72 47
-20 c49 -21 81 -19 106 5 18 19 8 88 -18 116 -38 42 -116 15 -152 -53 -13 -27
-15 -49 -7 -152 13 -194 11 -262 -15 -355 -26 -97 -41 -122 -41 -68 0 80 -35
112 -76 67 l-19 -21 -17 23 c-18 21 -19 21 -38 4 -19 -18 -20 -17 -20 7 0 14
-3 40 -6 57 l-6 31 59 0 c96 0 93 -9 84 241 -7 196 -10 221 -31 264 -35 72
-64 85 -190 85 -75 -1 -120 -6 -158 -19 l-53 -18 8 76 c4 42 8 150 8 241 0
142 -4 175 -23 236 -16 53 -31 80 -55 101 -72 63 -187 67 -299 10 -80 -41
-108 -80 -108 -153 0 -43 -6 -64 -31 -104 -43 -70 -67 -136 -95 -265 -13 -60
-43 -175 -65 -253 -35 -122 -40 -150 -33 -185 l9 -42 135 0 c113 0 135 2 135
15 0 12 -22 15 -124 18 l-124 3 7 46 c3 25 19 89 36 142 16 53 41 148 54 211
34 153 44 187 72 240 40 77 40 77 66 54 50 -46 147 -32 188 26 47 66 9 150
-67 150 -38 0 -97 -29 -120 -59 -11 -14 -12 -13 -13 7 -1 63 71 126 171 149
54 12 67 12 116 -2 67 -20 98 -49 113 -106 29 -108 27 -350 -5 -573 -58 -405
-95 -577 -129 -605 -17 -15 -78 9 -135 53 -19 14 -41 26 -48 26 -6 0 -29 -18
-49 -40 -42 -45 -55 -45 -111 -2 -18 13 -40 22 -48 18 -20 -7 -54 -64 -61
-103 -7 -37 -9 -38 -104 -23 -187 30 -190 38 -197 605 l-5 390 113 0 114 0 0
67 c0 57 -4 70 -24 92 -19 20 -34 26 -69 26 -77 0 -142 -51 -165 -131 -4 -11
-22 -18 -62 -22 -67 -7 -101 -33 -137 -106 -21 -43 -23 -60 -25 -246 l-2 -199
-52 -26 c-69 -34 -91 -76 -99 -190 -3 -47 -3 -99 2 -115 11 -44 62 -89 140
-125 38 -18 71 -37 75 -43 4 -7 11 -77 14 -157 4 -80 10 -158 14 -175 l8 -30
-34 32 c-19 18 -86 56 -149 84 -113 52 -117 53 -228 57 -100 4 -112 6 -106 21
4 9 22 60 41 114 56 165 42 267 -41 309 -68 34 -76 45 -76 107 0 31 11 126 25
211 27 171 30 246 14 353 -14 92 -48 154 -97 174 -44 18 -147 13 -204 -11 -51
-22 -55 -21 -50 19 4 31 2 35 -18 35 -46 0 -100 -23 -100 -42 0 -22 -1 -22 43
-3 46 19 47 19 47 -6 0 -12 -20 -41 -45 -67 l-45 -45 0 -165 0 -166 46 -43 46
-42 -11 -116 c-6 -63 -18 -141 -26 -172 -23 -91 -35 -233 -35 -431 0 -110 -4
-191 -11 -203 -5 -11 -9 -28 -7 -37 3 -13 9 -9 25 16 18 30 21 54 26 280 4
154 12 272 21 312 28 131 36 177 42 262 l6 86 73 -5 c60 -5 79 -2 100 11 76
50 87 173 18 205 -30 14 -103 14 -137 1 -34 -13 -63 -62 -71 -121 -4 -27 -10
-49 -15 -49 -4 0 -24 18 -44 40 -36 40 -36 40 -36 133 0 106 19 195 46 210 10
6 27 20 38 32 30 31 130 66 198 68 111 3 148 -53 156 -232 3 -95 -1 -144 -22
-267 -34 -197 -34 -272 -2 -307 13 -14 41 -34 64 -46 22 -11 42 -27 46 -36 3
-9 6 -51 6 -94 0 -59 -7 -98 -30 -166 -33 -98 -52 -125 -86 -125 -31 0 -53
-43 -59 -117 -3 -32 -10 -149 -15 -261 -6 -125 -14 -213 -22 -230 -22 -46 -74
-63 -208 -69 -98 -5 -120 -9 -120 -21 0 -13 17 -14 118 -9 180 9 228 31 251
113 7 22 16 147 22 278 6 132 15 250 20 264 l9 24 148 -4 147 -4 104 -44 c132
-57 182 -101 239 -209 30 -57 39 -82 30 -85 -345 -99 -480 -150 -528 -201 -39
-42 -50 -153 -30 -315 5 -41 12 -103 16 -136 l7 -62 -59 -43 c-99 -72 -123
-111 -123 -194 -1 -58 20 -195 39 -264 11 -39 46 -81 69 -81 10 0 1 -15 -25
-42 -57 -60 -81 -97 -108 -170 -46 -121 -136 -699 -136 -869 0 -63 1 -67 25
-73 14 -4 98 -4 186 0 133 6 159 10 154 21 -13 36 -17 278 -6 404 19 211 39
263 121 304 57 29 80 31 119 11 30 -16 47 -46 56 -103 14 -88 10 -83 71 -83
63 0 118 -20 133 -48 7 -13 11 -94 11 -213 l0 -192 35 -43 c45 -55 64 -100 71
-172 5 -50 2 -68 -31 -149 -46 -115 -87 -181 -117 -187 -32 -7 -184 -28 -239
-33 -67 -7 -105 29 -154 147 -29 69 -45 95 -66 106 -40 20 -56 18 -128 -17
l-65 -30 -25 20 c-60 48 -73 51 -121 30 -75 -34 -80 -42 -80 -135 l0 -82 -80
-7 c-71 -6 -80 -9 -80 -27 0 -19 4 -19 63 -13 34 3 69 8 78 11 12 3 18 -4 22
-26 9 -41 37 -41 37 1 l0 32 177 -7 c98 -4 179 -9 181 -11 2 -2 -1 -13 -8 -24
-9 -19 -8 -21 13 -21 28 0 38 24 26 57 -10 27 -41 32 -239 38 l-155 4 0 73 0
72 40 23 c22 12 45 23 51 23 6 0 31 -16 56 -36 l46 -35 61 30 c59 30 105 38
126 23 6 -4 27 -45 48 -92 61 -137 88 -160 190 -160 43 0 66 -4 62 -10 -3 -5
3 -10 14 -10 12 0 21 6 21 14 0 17 16 23 92 32 69 8 96 31 140 119 61 120 81
185 74 245 -9 81 -32 142 -71 188 l-35 40 0 189 c0 159 -3 193 -18 223 -22 45
-72 70 -138 70 l-51 0 -11 53 c-5 28 -9 54 -7 55 2 2 19 -1 38 -7 19 -7 84
-11 143 -11 60 1 122 -3 137 -9 16 -6 48 -11 73 -11 36 0 51 6 84 36 21 19 42
45 45 56 4 11 9 18 11 15 2 -2 -5 -46 -15 -98 -28 -136 -61 -383 -61 -457 0
-70 8 -90 56 -145 38 -42 40 -52 19 -121 -37 -121 6 -308 88 -384 44 -41 175
-92 237 -91 l55 0 -87 29 c-179 60 -216 91 -263 226 -30 84 -30 100 -5 199 23
90 17 125 -26 166 -51 47 -56 69 -44 187 15 142 25 222 52 374 20 121 22 126
41 116 20 -10 114 -6 185 8 l32 7 0 -48 c0 -43 4 -52 40 -86 56 -53 94 -59
162 -22 66 35 183 145 209 195 30 58 26 68 -25 68 -71 0 -195 -19 -274 -42
-40 -12 -75 -18 -78 -15 -4 4 0 21 9 39 8 18 18 44 22 58 3 14 15 36 25 50
l19 25 66 -23 c72 -25 90 -21 119 23 22 33 36 32 114 -12 59 -33 73 -37 135
-36 45 1 74 6 84 15 16 16 47 139 68 271 8 49 16 91 17 92 2 1 31 15 66 30 35
16 72 39 82 52 l19 24 11 -43 c20 -81 73 -238 99 -292 l26 -54 -62 -27 c-34
-14 -77 -41 -95 -59 -45 -43 -78 -150 -85 -272 l-6 -91 -35 19 c-45 22 -145
24 -195 3 -89 -37 -174 -107 -221 -180 -64 -100 -166 -375 -166 -446 0 -65 5
-69 81 -69 95 0 221 -20 242 -38 24 -22 23 -107 -3 -149 -11 -18 -23 -33 -27
-33 -5 0 -21 32 -36 70 -35 85 -48 88 -116 25 l-47 -44 -43 45 c-23 24 -46 42
-52 39 -26 -17 -43 -83 -43 -176 -1 -83 3 -102 25 -145 l25 -49 61 -3 c52 -2
68 1 109 26 53 31 114 109 114 147 0 20 -7 25 -52 34 -29 5 -93 11 -143 13
l-90 3 -5 -75 c-6 -95 -20 -60 -20 53 0 53 5 88 16 109 l17 32 29 -37 c39 -48
64 -47 113 3 21 22 44 40 50 40 6 0 23 -28 37 -62 33 -80 51 -92 83 -55 49 55
58 169 17 210 -24 24 -88 37 -217 46 -98 6 -100 6 -103 32 -3 29 83 279 132
379 31 65 121 170 145 170 7 0 9 -5 6 -11 -4 -6 -4 -35 0 -66 12 -98 88 -152
161 -117 59 29 80 106 50 179 -10 24 -28 41 -62 58 l-48 25 40 6 c46 8 113 -5
149 -28 44 -29 45 -111 5 -278 -31 -129 -29 -139 39 -212 71 -76 89 -121 71
-180 -17 -56 -63 -120 -105 -144 -23 -14 -35 -29 -36 -44 -3 -76 -17 -199 -26
-236 -4 -17 -1 -22 14 -22 17 0 21 9 27 61 3 34 6 90 6 124 0 61 1 64 38 91
20 15 39 32 40 36 6 13 23 9 21 -4 -5 -40 4 -71 29 -99 24 -27 35 -31 102 -37
l75 -7 13 -45 c7 -25 20 -61 30 -80 15 -31 22 -35 60 -38 36 -3 51 3 100 37
65 47 105 99 100 133 -3 23 -5 23 -135 26 -97 2 -133 6 -133 15 1 14 56 77 68
77 5 0 19 -11 32 -25 30 -31 39 -31 65 1 l21 26 33 -27 c18 -16 36 -24 41 -19
4 5 13 110 19 234 10 199 20 292 33 306 3 2 39 7 81 10 l77 7 0 -161 c0 -147
-2 -161 -18 -166 -10 -4 -28 -15 -40 -27 -19 -17 -22 -30 -22 -100 0 -44 5
-89 11 -100 5 -11 28 -27 50 -36 l41 -16 -7 -99 c-7 -94 -6 -100 11 -96 17 3
19 15 22 88 4 114 0 124 -53 149 l-45 21 0 59 c0 76 12 106 48 125 l29 15 5
213 c5 225 1 255 -41 278 -11 5 -37 10 -58 10 -30 0 -46 -7 -67 -29 -39 -41
-74 -159 -87 -298 -6 -65 -14 -136 -18 -158 l-7 -40 -91 -3 -92 -3 5 68 c30
409 68 564 174 718 34 50 65 69 126 79 l41 6 26 -58 c15 -31 64 -122 110 -202
78 -135 115 -181 245 -314 16 -16 13 -17 -43 -11 -53 6 -64 4 -95 -17 -100
-67 -90 -218 15 -218 20 0 45 5 55 10 18 10 40 65 40 102 0 25 -42 69 -67 71
-13 1 -23 4 -23 8 0 14 36 20 87 13 40 -5 57 -12 66 -28 19 -35 22 -337 4
-432 -9 -43 -19 -104 -22 -134 -4 -30 -9 -63 -11 -72 -4 -13 0 -18 15 -18 15
0 21 8 25 33 2 17 14 93 27 167 18 111 21 157 16 260 -7 127 -25 223 -52 263
-13 21 -12 24 19 50 19 14 45 50 59 79 26 55 62 198 71 280 9 76 18 72 -294
139 -107 23 -205 45 -217 50 l-21 8 19 37 c10 21 22 53 25 71 6 30 9 33 42 33
24 0 69 -18 138 -55 57 -30 109 -55 117 -55 8 0 35 27 61 60 l47 61 32 -23
c18 -13 90 -83 162 -156 141 -144 197 -182 272 -182 24 0 61 9 83 20 52 27
100 25 159 -5 95 -48 127 -131 141 -365 5 -85 10 -196 10 -247 l0 -91 -107 -7
c-60 -3 -113 -8 -120 -10 -24 -8 -26 -70 -4 -119 24 -55 46 -59 103 -19 l39
26 15 -21 c20 -28 36 -28 72 3 45 38 56 33 48 -21 -3 -26 -6 -57 -6 -69 0 -21
-5 -22 -106 -28 -128 -6 -140 -14 -130 -81 11 -73 36 -86 162 -86 100 0 103 1
102 23 -1 12 -1 46 0 75 2 43 5 52 20 52 47 0 69 69 97 310 8 74 23 171 33
215 24 113 24 338 -1 420 -28 91 -57 130 -109 144 -24 7 -112 15 -196 18 -135
5 -152 8 -147 22 69 178 105 468 105 846 0 223 3 270 19 327 48 175 163 277
321 285 60 4 82 1 110 -15 47 -25 113 -120 149 -212 27 -70 96 -354 121 -497
12 -71 40 -444 33 -455 -2 -5 -50 -8 -107 -8 -133 0 -141 -5 -134 -91 6 -71
22 -111 69 -164 41 -46 65 -45 130 9 29 24 58 42 63 39 6 -2 25 -23 41 -46 43
-58 65 -59 125 -3 27 25 54 46 60 46 19 0 30 -50 30 -141 0 -63 -4 -91 -12
-94 -7 -3 -83 -9 -169 -14 -212 -12 -246 -30 -228 -124 22 -119 107 -191 226
-191 52 -1 65 3 88 24 44 41 91 135 115 227 9 38 16 44 74 71 73 34 85 51 93
128 3 30 8 53 10 51 2 -2 10 -44 18 -93 8 -49 19 -102 24 -119 14 -45 14 182
-1 306 -8 78 -8 151 1 318 7 119 11 266 9 326 l-3 110 -15 -105 -15 -105 -6
130 c-9 184 -36 284 -89 328 -27 23 -41 27 -96 27 -56 0 -68 -4 -95 -28 -59
-52 -58 -159 1 -221 68 -71 163 -66 209 10 l18 30 7 -38 c15 -95 -1 -881 -20
-966 -4 -19 -19 -34 -45 -47 -21 -11 -43 -20 -49 -20 -6 0 -10 33 -10 85 0
134 -34 191 -96 159 -16 -8 -46 -32 -68 -52 -36 -35 -39 -36 -50 -18 -26 44
-69 86 -89 86 -11 0 -45 -20 -75 -45 -53 -44 -56 -45 -75 -28 -42 39 -86 180
-60 196 5 4 60 7 122 9 62 2 115 6 118 11 7 11 -16 337 -32 449 -32 220 -111
513 -168 622 -88 171 -175 214 -342 171 -100 -26 -183 -94 -230 -188 -19 -40
-25 -46 -25 -26 0 58 -22 271 -36 354 -75 440 -189 714 -358 856 -130 111
-255 155 -416 146 -114 -6 -181 -28 -285 -98 -105 -71 -179 -163 -225 -284
-30 -80 -33 -215 -6 -295 22 -66 110 -223 140 -252 33 -31 77 -51 125 -57 l44
-6 23 -85 c13 -47 30 -119 38 -160 8 -41 28 -129 44 -195 31 -126 57 -265 67
-375 9 -84 30 -168 59 -235 13 -29 27 -66 30 -81 l6 -29 -162 -2 c-159 -2
-241 -15 -239 -38 1 -5 18 -9 39 -8 20 1 120 3 222 5 l185 5 -2 34 c-1 19 -18
75 -37 126 -27 69 -41 129 -56 240 -24 171 -73 393 -146 665 -19 69 -34 130
-34 135 0 5 29 24 64 42 79 40 99 62 130 136 24 60 25 84 11 190 -12 89 -74
145 -161 145 -61 0 -96 -23 -121 -78 -25 -54 -22 -224 4 -319 l21 -73 -38 0
c-22 0 -51 9 -71 23 -37 25 -116 149 -151 237 -28 72 -30 192 -4 270 68 202
266 365 469 386 174 18 404 -91 506 -240 101 -148 147 -274 210 -584 52 -251
62 -390 63 -832 1 -376 0 -405 -26 -595 -21 -161 -34 -222 -66 -314 -22 -63
-49 -124 -60 -135 -25 -25 -90 -27 -135 -3 -16 8 -100 84 -185 169 -85 84
-167 159 -183 167 -27 14 -29 13 -72 -29 -25 -24 -48 -52 -51 -62 -8 -27 -25
-23 -128 33 -84 45 -100 50 -147 47 -57 -3 -62 -9 -79 -75 -14 -58 -41 -88
-66 -76 -10 6 -44 18 -74 28 -135 43 -235 114 -299 213 -93 145 -155 387 -181
705 -14 170 -13 520 1 663 l13 121 23 -28 c31 -36 122 -71 165 -62 56 10 96
48 113 105 29 98 10 188 -45 215 -58 29 -157 8 -213 -45 l-29 -27 7 55 c19
164 71 371 121 479 61 133 232 337 350 419 42 29 75 101 87 193 l10 76 151 6
c184 7 234 21 276 79 40 55 67 131 97 273 14 66 31 123 37 127 21 14 195 9
232 -7 43 -18 104 -69 122 -101 20 -37 42 -160 42 -237 0 -82 -20 -204 -57
-356 -24 -101 -25 -105 -7 -118 10 -7 25 -11 34 -8 8 4 70 9 138 12 l122 6 0
-29 c0 -16 -5 -46 -11 -66 -8 -30 -15 -38 -33 -38 -13 0 -31 9 -41 20 -25 28
-46 25 -80 -10 -25 -26 -35 -30 -86 -30 -65 0 -69 -5 -69 -77 l0 -45 -32 6
c-18 3 -53 17 -78 29 -37 19 -51 34 -77 88 -87 172 -124 323 -122 501 1 95 3
112 9 77 10 -59 32 -93 75 -113 66 -31 170 -14 195 33 31 59 -4 178 -68 231
-48 40 -93 47 -143 24 -95 -42 -126 -125 -115 -301 12 -189 102 -458 177 -534
35 -35 129 -79 169 -79 12 0 32 -19 53 -52 42 -67 160 -178 190 -179 67 -4
100 18 155 100 51 77 61 126 32 155 -18 18 -32 21 -118 21 -53 0 -132 -3 -174
-6 l-78 -7 -6 34 c-8 43 0 54 42 54 40 0 71 14 94 43 16 19 16 19 50 -2 45
-27 96 -28 110 -2 5 11 15 54 22 96 10 65 10 78 -3 86 -8 5 -76 8 -152 7 -90
-2 -137 1 -137 7 0 6 6 35 14 65 55 214 64 389 27 525 -22 83 -52 137 -86 155
-11 6 -34 21 -52 34 l-32 23 29 21 c40 30 85 165 77 236 -9 86 -30 124 -82
147 -25 11 -45 22 -45 25 0 7 40 196 46 217 4 12 0 17 -15 17 -13 0 -21 -7
-21 -17 -1 -17 -1 -17 -11 0 -5 9 -15 17 -22 17 -9 0 -11 -34 -9 -130 l3 -131
54 -24 c46 -20 55 -28 64 -62 16 -57 13 -90 -15 -175 -38 -114 -54 -123 -222
-131 l-83 -4 6 66 c4 36 10 91 15 121 5 30 12 148 16 263 6 179 5 207 -8 207
-12 0 -16 -22 -21 -107 -4 -58 -7 -140 -7 -182 0 -96 -40 -403 -71 -546 -20
-94 -60 -204 -89 -243 -36 -50 -78 -61 -261 -69 l-137 -6 -4 69 c-4 79 -24
128 -53 132 -11 1 -50 -15 -87 -38 -37 -22 -74 -40 -82 -40 -8 0 -23 12 -33
26 -10 15 -31 40 -46 57 -25 26 -33 29 -71 25 -41 -5 -74 -23 -191 -108 -66
-48 -79 -40 -106 73 -17 71 -5 498 20 737 12 107 23 201 26 208 2 7 -4 12 -14
12 -14 0 -20 -10 -24 -37z m-649 -825 c27 -27 3 -82 -45 -107 -47 -24 -123 -5
-123 31 0 6 17 28 39 49 32 32 46 39 78 39 21 0 44 -5 51 -12z m-498 -68 c22
-12 35 -67 25 -100 -7 -22 -10 -22 -99 -15 -50 4 -92 8 -94 10 -2 2 4 18 14
37 33 64 104 95 154 68z m2552 -22 c55 -39 87 -149 55 -192 -17 -23 -97 -33
-136 -17 -34 15 -51 48 -51 102 0 48 13 76 49 106 33 28 46 28 83 1z m-2759
-510 c8 -577 18 -606 234 -639 l81 -12 4 -104 c3 -112 8 -123 60 -123 39 0
129 36 177 71 43 31 81 82 81 110 0 31 -144 79 -237 79 -38 0 -38 3 -7 78 14
35 16 35 64 1 14 -10 37 -21 53 -25 23 -5 33 0 65 35 l37 41 49 -35 c55 -39
108 -57 142 -49 37 9 78 132 110 324 9 58 20 109 24 113 24 27 23 -471 -1
-708 -13 -128 -23 -167 -56 -205 -64 -77 -157 -94 -452 -87 -202 4 -223 3
-319 -19 -57 -13 -108 -24 -112 -24 -5 0 -14 16 -20 35 -7 20 -22 55 -35 78
-29 52 -45 154 -46 289 0 106 -13 165 -39 179 -8 5 -46 23 -85 42 -47 22 -78
45 -94 68 -21 31 -23 42 -18 119 7 123 24 155 97 186 l59 26 -2 202 c-2 194
-1 203 22 246 39 75 58 90 112 90 l47 0 5 -382z m1981 274 c8 -13 -21 -156
-38 -189 -40 -78 -114 -94 -202 -43 -28 16 -63 43 -77 60 -29 34 -50 97 -45
138 l3 27 160 5 c88 3 168 7 177 8 9 1 19 -2 22 -6z m-2816 -158 c34 -24 31
-92 -7 -133 -26 -28 -35 -31 -88 -31 -78 0 -87 7 -79 62 8 56 38 105 68 111
49 9 84 6 106 -9z m2138 -42 c53 -43 57 -61 65 -286 4 -116 5 -213 3 -215 -2
-2 -29 -6 -59 -9 -64 -5 -58 -18 -75 163 -18 192 -49 256 -114 239 -42 -10
-66 -49 -66 -106 0 -40 5 -53 26 -73 31 -29 70 -32 96 -9 23 22 24 18 38 -126
30 -310 30 -310 66 -265 l23 29 20 -25 21 -24 24 28 c14 15 28 27 31 27 3 0 5
-20 5 -44 0 -51 -9 -56 -103 -56 -33 0 -72 -7 -90 -16 -55 -28 -58 -33 -43
-63 34 -64 136 -130 204 -131 17 0 32 -3 32 -8 0 -4 -8 -88 -17 -187 -13 -133
-18 -269 -18 -522 1 -269 -2 -336 -11 -314 -19 44 -57 68 -123 75 -89 10 -97
21 -124 162 -25 133 -41 165 -89 190 -41 21 -146 15 -209 -13 -148 -66 -170
-199 -104 -618 24 -155 29 -239 13 -252 -13 -11 -229 -133 -235 -133 -2 0 -3
136 -3 303 0 289 -15 545 -40 687 -6 30 -15 95 -21 145 -6 56 -19 110 -34 144
-14 29 -25 55 -25 57 0 2 64 3 143 2 307 -4 417 53 447 232 24 149 32 519 16
810 -10 185 -12 178 60 204 59 22 243 21 270 -2z m1980 -437 c17 -43 -98 -195
-147 -195 -24 0 -119 87 -161 148 -16 23 -28 42 -26 43 2 0 35 3 73 6 39 3 72
7 74 9 2 2 44 4 93 4 70 0 90 -3 94 -15z m-2708 -319 c26 -13 30 -20 23 -34
-26 -49 -136 -118 -205 -129 l-33 -5 -6 68 c-3 38 -3 82 0 98 l6 29 91 -5 c58
-3 103 -11 124 -22z m832 -79 c0 -82 -13 -101 -63 -92 -44 8 -106 48 -137 87
l-21 28 28 12 c15 6 60 15 98 18 39 4 76 7 83 8 8 2 12 -16 12 -61z m928 -32
c51 -21 74 -62 80 -145 4 -58 1 -76 -22 -126 -32 -69 -58 -99 -108 -125 -58
-30 -64 -26 -84 49 -26 92 -26 253 -1 303 28 57 69 70 135 44z m-643 -120 c47
-46 29 -177 -30 -223 -58 -45 -173 -11 -209 61 -18 37 -18 40 -1 77 32 71 92
110 168 110 38 0 53 -5 72 -25z m-1525 -297 c-14 -23 -20 -51 -20 -90 0 -52 3
-60 38 -96 67 -71 137 -65 185 16 l22 37 3 -35 c1 -19 9 -73 16 -120 34 -202
41 -320 41 -675 l0 -360 -54 -27 c-30 -16 -67 -28 -81 -28 -27 0 -27 1 -34 90
-7 98 -21 140 -44 140 -8 0 -34 -18 -58 -40 -24 -22 -52 -40 -62 -40 -11 0
-36 14 -57 30 -21 17 -40 30 -42 30 -2 0 -33 -29 -67 -65 -34 -36 -70 -65 -79
-65 -31 0 -57 59 -57 127 l0 62 38 11 c33 9 106 24 290 61 l52 10 0 45 c0 25
-4 75 -10 112 -5 37 -19 132 -30 212 -27 182 -71 380 -120 533 -25 79 -34 119
-27 121 95 25 136 34 154 35 l23 1 -20 -32z m175 7 c34 -33 34 -102 0 -160
-28 -49 -43 -57 -85 -48 -118 23 -98 233 22 233 28 0 46 -7 63 -25z m-335
-121 c43 -134 95 -364 119 -524 28 -190 45 -349 38 -356 -3 -4 -43 -13 -89
-20 -46 -8 -131 -27 -188 -42 l-105 -27 1 -70 c1 -51 8 -83 23 -113 40 -79 85
-78 160 4 27 30 52 54 56 54 3 0 23 -11 43 -25 51 -35 75 -32 126 15 51 48 52
47 61 -76 l7 -90 -98 -23 c-141 -33 -195 -49 -210 -62 -20 -16 -17 -92 6 -177
11 -39 20 -74 20 -77 0 -10 -176 -3 -210 9 -19 7 -40 23 -47 36 -6 13 -33 112
-59 219 -26 108 -51 208 -57 224 -12 35 -36 35 -144 0 -93 -30 -129 -26 -150
18 -19 39 -43 194 -43 275 0 71 2 76 36 113 19 22 57 54 84 71 26 17 51 38 54
46 3 8 -1 65 -9 126 -8 61 -15 162 -15 222 0 93 3 116 20 144 28 45 38 40 32
-16 -5 -55 24 -136 63 -172 32 -30 91 -42 129 -26 49 21 69 50 74 111 6 71
-14 139 -51 182 -16 19 -28 35 -26 36 11 9 277 86 296 86 19 1 26 -11 53 -95z
m-326 -74 c31 -52 29 -160 -4 -195 -35 -38 -99 -35 -133 5 -50 59 -56 115 -23
195 l15 36 63 -3 c59 -3 63 -5 82 -38z m1336 -125 c40 -21 45 -33 69 -162 11
-62 27 -126 36 -142 16 -32 61 -51 125 -51 70 -1 103 -52 127 -199 20 -123 14
-135 -81 -177 -71 -31 -80 -43 -91 -129 -4 -27 -18 -98 -32 -157 -28 -117 -28
-118 -112 -118 -32 0 -62 10 -116 40 -40 22 -78 40 -85 40 -7 0 -28 -16 -47
-37 l-35 -36 -52 16 c-70 22 -91 21 -115 -5 -20 -21 -74 -150 -74 -175 0 -15
-11 -18 -107 -33 -88 -13 -88 -13 -113 14 -20 21 -22 32 -19 119 l3 95 42 7
c36 7 87 29 147 65 8 5 72 41 142 80 93 51 129 77 134 94 5 22 -10 167 -42
386 -9 63 -17 156 -17 205 -1 76 2 98 22 140 l24 50 7 -39 c14 -73 92 -117
151 -85 11 5 33 28 49 51 36 49 39 94 9 132 l-20 26 21 0 c11 0 34 -7 50 -15z
m-86 -16 c14 -11 26 -30 26 -41 0 -43 -65 -118 -102 -118 -7 0 -26 11 -41 25
-50 47 -29 115 43 144 36 14 44 13 74 -10z m3419 -314 c30 -64 15 -162 -28
-179 -40 -15 -87 -6 -116 23 -24 25 -29 37 -29 81 0 51 12 88 34 102 6 4 36 8
67 8 54 0 56 -1 72 -35z m-4773 -612 c0 -10 21 -104 48 -209 l47 -191 -45 4
c-34 2 -58 -3 -100 -25 -61 -31 -84 -63 -106 -144 -21 -82 -37 -329 -29 -461
l7 -117 -89 -1 c-48 -1 -104 -3 -123 -5 -19 -2 -49 -1 -65 1 -35 6 -35 -10 -9
245 25 251 77 546 114 656 22 64 74 138 121 174 30 22 185 86 217 89 6 1 12
-7 12 -16z m677 -277 c-5 -107 -7 -117 -36 -159 -16 -24 -38 -47 -46 -51 -31
-12 -94 -6 -129 12 -30 15 -37 26 -55 87 -12 39 -21 89 -21 112 0 48 -12 41
165 87 140 36 128 45 122 -88z m1370 64 c70 -77 127 -112 278 -164 18 -6 16
-9 -14 -23 -64 -32 -145 -166 -184 -308 -45 -165 -64 -302 -69 -495 l-3 -105
113 -3 c98 -2 113 -5 108 -18 -3 -9 -6 -31 -6 -50 0 -31 -2 -34 -19 -24 -28
15 -61 12 -67 -5 -8 -20 -21 -19 -46 5 -30 28 -42 25 -88 -16 -30 -27 -40 -44
-40 -67 l0 -30 -72 7 c-95 9 -106 20 -109 111 -1 39 3 83 10 98 15 39 14 101
-4 142 -8 20 -38 60 -66 91 -50 52 -53 58 -50 102 1 26 9 70 18 97 11 35 18
113 23 260 6 192 9 216 33 280 16 43 36 77 53 90 37 27 126 75 142 75 8 0 34
-23 59 -50z m-697 -115 c0 -38 -123 -161 -201 -200 -61 -31 -77 -31 -120 0
-30 22 -35 32 -39 80 l-5 53 80 22 c121 32 285 58 285 45z m1460 -170 c138
-26 150 -31 150 -68 0 -58 -49 -247 -77 -299 -15 -28 -38 -55 -52 -61 -22 -10
-29 -6 -85 54 -54 57 -113 149 -226 354 -55 99 -58 97 82 64 68 -16 161 -36
208 -44z m1048 -6 c43 -9 57 -17 72 -41 19 -31 44 -126 54 -205 l6 -43 -36 17
c-32 16 -38 16 -62 2 -19 -10 -28 -24 -30 -48 -7 -71 32 -112 93 -97 14 4 25
4 25 0 0 -3 -9 -49 -20 -102 -10 -54 -26 -156 -34 -227 -25 -213 -43 -285 -70
-285 -12 0 -16 16 -18 71 -4 92 -19 106 -74 66 -38 -27 -38 -27 -59 -7 -27 26
-33 25 -77 -5 -20 -14 -41 -25 -46 -25 -15 0 -35 58 -28 84 6 23 9 24 121 28
63 2 118 7 122 11 4 4 2 119 -4 255 -13 267 -25 338 -76 425 -21 35 -40 52
-89 76 -33 17 -76 31 -95 31 -31 0 -33 1 -22 22 11 20 15 21 153 15 78 -3 165
-11 194 -18z m-2315 -115 c49 -25 66 -44 73 -81 8 -44 -10 -85 -46 -106 -37
-22 -72 -14 -105 25 -20 24 -25 40 -25 88 0 87 32 110 103 74z m3100 -87 c-18
-62 -46 -120 -80 -164 -22 -31 -28 -33 -81 -33 -102 0 -171 62 -188 168 -6 41
-6 42 32 59 27 11 81 18 179 22 77 4 143 5 147 3 4 -1 0 -26 -9 -55z m-3315
-823 c23 -3 42 -10 42 -16 0 -47 -130 -148 -189 -148 -34 0 -39 11 -48 91 -9
87 -6 90 79 84 40 -3 92 -8 116 -11z m942 -29 c0 -37 -142 -141 -175 -129 -16
6 -32 44 -41 96 l-6 37 88 4 c49 1 99 4 112 5 14 1 22 -4 22 -13z m1540 -53
c0 -61 -22 -82 -85 -82 -57 0 -105 13 -117 33 -4 7 -8 26 -8 44 0 37 7 39 133
42 l77 1 0 -38z"/>
<path d="M3070 5626 c0 -27 -178 -351 -299 -544 -34 -53 -23 -60 97 -63 248
-7 273 -5 258 19 -3 5 -77 13 -165 17 l-158 7 25 47 c14 25 68 118 120 206 87
146 138 246 156 303 6 18 3 22 -13 22 -12 0 -21 -6 -21 -14z"/>
<path d="M4240 5561 c0 -45 13 -147 31 -242 49 -265 87 -313 250 -327 l83 -7
12 -49 c41 -160 155 -211 259 -115 57 52 124 157 132 204 5 30 2 41 -12 51
-22 17 -103 18 -142 3 -15 -6 -68 -19 -118 -29 -68 -14 -92 -15 -98 -7 -10 15
0 128 12 140 6 6 37 0 81 -17 39 -14 80 -26 90 -26 11 0 32 18 50 45 19 28 39
45 51 45 11 0 41 -20 67 -44 88 -81 149 -96 195 -48 32 33 45 90 52 224 3 57
7 142 10 191 5 86 5 87 -19 87 -24 0 -24 0 -31 -157 -8 -198 -21 -292 -42
-315 -27 -30 -66 -22 -119 25 -109 96 -133 100 -187 27 l-37 -50 -69 25 c-38
14 -78 25 -89 25 -36 0 -56 -44 -56 -121 l-1 -69 -60 0 c-103 0 -128 12 -163
78 -20 38 -36 89 -47 155 -9 53 -21 112 -26 130 -5 17 -12 80 -16 140 -5 95
-8 107 -25 107 -16 0 -18 -9 -18 -79z m728 -527 c4 -27 -89 -166 -132 -199
-23 -17 -46 -25 -74 -25 -38 0 -44 4 -66 38 -27 43 -59 139 -48 146 4 2 39 9
78 16 39 6 98 20 130 30 74 24 108 22 112 -6z"/>
<path d="M4582 5493 l3 -148 100 -7 c55 -4 111 -5 124 -2 23 5 23 8 17 62 -4
31 -9 99 -13 150 -5 83 -8 92 -26 92 -19 0 -20 -4 -13 -112 3 -62 9 -123 12
-136 7 -23 6 -23 -77 -20 l-84 3 -3 133 c-2 124 -4 132 -23 132 -19 0 -19 -6
-17 -147z"/>
<path d="M5408 5530 c-38 -11 -128 -79 -128 -95 0 -27 17 -23 76 16 57 39 62
41 126 37 56 -3 75 -9 113 -36 l45 -32 0 29 c0 26 -7 33 -62 60 -63 32 -114
38 -170 21z"/>
<path d="M5520 5356 c-14 -8 -44 -23 -67 -34 -36 -17 -43 -27 -52 -64 -6 -24
-19 -68 -28 -98 -13 -41 -19 -100 -21 -227 l-4 -173 -41 0 c-49 0 -119 -32
-147 -68 -30 -38 -9 -51 32 -21 46 34 83 49 122 49 l33 0 6 -67 c11 -116 12
-113 -31 -113 -46 0 -105 -38 -129 -83 -39 -75 -7 -206 60 -242 43 -23 147
-18 176 9 19 17 20 17 46 -33 14 -29 43 -69 65 -90 37 -35 40 -43 49 -122 13
-100 -1 -406 -20 -459 -27 -77 -72 -111 -167 -126 l-38 -6 -11 116 c-9 95 -15
123 -37 160 -43 74 -81 84 -136 36 -19 -16 -40 -29 -47 -30 -7 0 -24 15 -38
34 -14 19 -33 37 -41 40 -22 8 -62 -16 -109 -63 -21 -23 -45 -41 -52 -41 -20
0 -33 35 -33 88 0 70 11 76 149 82 l116 5 -3 65 c-3 97 -22 319 -37 455 -15
127 -51 258 -88 312 -52 76 -141 79 -279 10 -74 -37 -91 -42 -153 -42 -67 0
-94 8 -152 45 -12 8 -26 11 -30 7 -13 -14 13 -41 63 -67 40 -21 63 -25 129
-25 77 0 85 2 144 39 81 49 176 68 215 43 14 -10 32 -30 40 -45 14 -27 68
-212 61 -212 -2 0 -12 15 -23 34 -33 56 -123 72 -204 37 -54 -23 -78 -63 -79
-131 -2 -45 2 -55 32 -86 58 -59 139 -58 209 4 31 28 45 50 55 87 l12 50 7
-100 c4 -55 14 -174 22 -264 8 -90 12 -166 9 -169 -3 -4 -54 -9 -112 -12 -99
-6 -107 -8 -129 -34 -35 -40 -34 -132 2 -175 20 -24 34 -31 63 -31 30 0 44 8
81 45 24 25 49 45 54 45 5 0 24 -16 42 -35 40 -44 72 -45 119 -4 21 19 41 29
51 25 29 -11 53 -89 60 -195 l7 -101 -139 0 c-180 -1 -408 -24 -440 -45 -50
-33 -15 -148 79 -260 63 -75 181 -121 280 -109 116 13 173 46 210 119 19 40
47 164 47 213 l0 40 53 6 c132 17 192 75 222 216 23 108 20 520 -3 520 -30 0
-98 85 -132 165 -63 153 -81 247 -91 495 -9 203 -7 304 7 351 4 13 17 5 58
-36 55 -56 100 -74 151 -61 18 5 25 13 25 30 0 22 -3 23 -32 17 -53 -11 -75
-2 -122 45 -52 51 -59 76 -35 124 31 64 63 85 130 85 57 0 59 1 59 26 0 15 -7
30 -16 33 -27 10 -78 6 -104 -8z m-126 -945 c16 -53 30 -103 33 -113 3 -9 -5
-26 -16 -37 -28 -28 -130 -30 -153 -3 -48 56 -49 154 -2 203 25 26 67 45 100
46 6 0 23 -43 38 -96z m-419 13 c12 -13 15 -26 9 -58 -9 -55 -20 -74 -57 -96
-47 -29 -111 -27 -144 6 -22 23 -25 31 -19 72 10 74 29 86 148 90 31 1 52 -3
63 -14z m328 -1116 c-9 -84 -34 -184 -53 -216 -29 -48 -95 -74 -189 -75 -125
-3 -192 39 -266 165 -19 32 -37 73 -41 92 -5 32 -3 37 18 45 38 14 216 28 385
30 l151 1 -5 -42z"/>
<path d="M4495 2202 c3 -11 -3 -29 -15 -45 -11 -14 -20 -30 -20 -36 0 -20 18
-11 41 20 27 39 48 25 29 -20 -19 -46 -1 -61 22 -18 16 31 21 35 41 28 18 -7
21 -15 19 -45 -2 -20 1 -36 6 -36 12 0 22 24 22 51 0 14 7 19 25 19 20 0 25
-5 25 -24 0 -14 5 -28 10 -31 6 -4 10 7 10 25 0 24 6 33 27 41 25 9 30 7 50
-17 27 -35 40 -26 19 14 -11 22 -12 32 -3 41 8 8 8 14 0 22 -9 9 -21 6 -48
-11 -51 -32 -146 -26 -202 13 -46 32 -67 35 -58 9z"/>
<path d="M1590 968 c0 -12 -7 -30 -17 -40 -21 -24 -9 -36 15 -15 10 10 24 17
30 17 15 0 16 -26 2 -35 -5 -3 -10 -14 -10 -23 1 -14 4 -13 19 6 12 13 25 20
35 16 19 -7 19 -9 6 -35 -8 -13 -7 -19 0 -19 6 0 13 7 16 15 11 28 34 17 35
-17 l1 -33 10 33 c12 36 48 46 48 13 0 -11 5 -23 11 -26 17 -11 21 2 9 26 -10
18 -9 23 4 31 18 10 21 34 5 44 -6 3 -16 1 -22 -5 -27 -27 -101 -6 -146 43
-30 32 -51 33 -51 4z"/>
<path d="M3905 610 c-33 -14 -66 -51 -87 -97 -20 -44 -30 -151 -41 -405 -5
-101 -4 -108 14 -108 14 0 19 7 19 28 3 159 21 414 31 441 l12 34 18 -36 c35
-68 87 -84 159 -47 21 11 42 30 46 42 15 43 23 -48 23 -259 1 -180 3 -203 17
-203 15 0 16 23 12 238 -6 265 -12 297 -74 352 -29 25 -43 30 -82 29 -26 0
-56 -4 -67 -9z m122 -42 c29 -27 31 -78 4 -102 -45 -41 -109 -36 -130 11 -20
44 -14 72 22 93 42 26 75 25 104 -2z"/>
<path d="M5391 136 c-42 -15 -101 -64 -124 -105 l-18 -31 40 0 c22 0 43 5 46
10 8 14 58 13 90 -2 35 -16 45 -1 15 24 -18 15 -36 19 -71 16 -37 -2 -45 0
-37 9 18 23 72 51 108 58 46 8 85 -21 101 -76 7 -21 18 -39 26 -39 18 0 16 17
-6 66 -35 76 -90 99 -170 70z"/>
</g>
</svg>
